# xmcd CD database file
#
# Track frame offsets:
#	150
#	16345
#	29882
#	48225
#	68562
#	83487
#	100125
#	119850
#	137835
#	156872
#	168950
#	183797
#
# Disc length: 2648 seconds
#
# Revision: 0
# Processed by: cddbd v1.5.2PL0 Copyright (c) Steve Scherf et al.
# Submitted via: CDex 1.70beta2
#
DISCID=990a560c
DTITLE=Poker Alice - strongly recommended
DYEAR=2003
DGENRE=Country
TTITLE0=six white horses
TTITLE1=birmingham
TTITLE2=leave again
TTITLE3=rolling home
TTITLE4=gimme 2
TTITLE5=jealous
TTITLE6=fine day
TTITLE7=personal jesus
TTITLE8=fool
TTITLE9=bitter rain
TTITLE10=can't let go
TTITLE11=the sun
EXTD=YEAR: 2003
EXTT0=
EXTT1=
EXTT2=
EXTT3=
EXTT4=
EXTT5=
EXTT6=
EXTT7=
EXTT8=
EXTT9=
EXTT10=
EXTT11=
PLAYORDER=
